<svg width="24" height="24" viewBox="0 0 24 24" xmlns="http://www.w3.org/2000/svg">
<path fill-rule="evenodd" clip-rule="evenodd" d="M10.7059 2C11.0632 2 11.3529 2.27982 11.3529 2.625V8.25H12.6471V5.75C12.6471 5.40482 12.9368 5.125 13.2941 5.125C13.6514 5.125 13.9412 5.40482 13.9412 5.75V8.25C15.0132 8.25 15.8824 9.08946 15.8824 10.125V11.375H19.1176C19.1543 11.375 19.1901 11.3779 19.2251 11.3835C19.4889 10.6509 20.2103 10.125 21.0588 10.125C22.1309 10.125 23 10.9645 23 12C23 13.0355 22.1309 13.875 21.0588 13.875C20.2103 13.875 19.4889 13.3491 19.2251 12.6165C19.1901 12.6221 19.1543 12.625 19.1176 12.625H15.8824V13.875C15.8824 14.9105 15.0132 15.75 13.9412 15.75V21.375C13.9412 21.7201 13.6514 22 13.2941 22C12.9368 22 12.6471 21.7201 12.6471 21.375V15.75H11.3529V18.25C11.3529 18.5951 11.0632 18.875 10.7059 18.875C10.3486 18.875 10.0588 18.5951 10.0588 18.25V15.75C8.98674 15.75 8.11765 14.9105 8.11765 13.875V12.625H4.88235C4.84578 12.625 4.80992 12.6221 4.77501 12.6165C4.51104 13.3491 3.78969 13.875 2.94118 13.875C1.86909 13.875 1 13.0355 1 12C1 10.9645 1.86909 10.125 2.94118 10.125C3.78969 10.125 4.51104 10.6509 4.77501 11.3835C4.80992 11.3779 4.84578 11.375 4.88235 11.375H8.11765V10.125C8.11765 9.08946 8.98674 8.25 10.0588 8.25V2.625C10.0588 2.27982 10.3486 2 10.7059 2ZM13.9412 14.5C14.2985 14.5 14.5882 14.2201 14.5882 13.875V10.125C14.5882 9.77987 14.2985 9.5 13.9412 9.5H10.0588C9.70152 9.5 9.41176 9.77987 9.41176 10.125V13.875C9.41176 14.2201 9.70152 14.5 10.0588 14.5H13.9412ZM2.94118 11.375C2.58382 11.375 2.29412 11.6549 2.29412 12C2.29412 12.3451 2.58382 12.625 2.94118 12.625C3.29853 12.625 3.58824 12.3451 3.58824 12C3.58824 11.6549 3.29853 11.375 2.94118 11.375ZM20.4118 12C20.4118 11.6549 20.7015 11.375 21.0588 11.375C21.4161 11.375 21.7059 11.6549 21.7059 12C21.7059 12.3451 21.4161 12.625 21.0588 12.625C20.7015 12.625 20.4118 12.3451 20.4118 12Z"/>
</svg>
