<svg width="50" height="50" viewBox="0 0 50 50" fill="none" xmlns="http://www.w3.org/2000/svg">
<path d="M15.8084 28.7881C14.4347 28.7881 13.2539 28.5426 12.266 28.0516C11.2781 27.5605 10.5503 26.8854 10.0827 26.0261C9.61506 25.1668 9.466 24.1818 9.63552 23.0712H14.3704C14.2885 23.685 14.4464 24.1789 14.8439 24.553C15.2414 24.9213 15.7616 25.1054 16.4046 25.1054C16.9132 25.1054 17.375 25.0002 17.79 24.7898C18.205 24.5735 18.5528 24.2725 18.8334 23.8867C19.114 23.495 19.2981 23.0361 19.3858 22.51C19.4735 21.9839 19.4413 21.528 19.2894 21.1422C19.1374 20.7505 18.8889 20.4495 18.5441 20.2391C18.1992 20.0228 17.7783 19.9146 17.2814 19.9146C16.7612 19.9146 16.2643 20.0403 15.7908 20.2917C15.3173 20.5372 14.9374 20.8791 14.651 21.3176L10.5123 20.4758L12.8622 10.5852H24.9273L24.296 14.4783H16.2292L15.2121 18.4416H15.3173C15.6915 17.8979 16.2526 17.4478 17.0008 17.0913C17.7549 16.7288 18.585 16.5476 19.491 16.5476C20.5607 16.5476 21.4726 16.7961 22.2267 17.2929C22.9808 17.7898 23.5273 18.4766 23.8664 19.3535C24.2054 20.2303 24.2785 21.2357 24.0856 22.3697C23.8927 23.6207 23.4192 24.7284 22.6651 25.6929C21.9111 26.6574 20.9466 27.4144 19.7716 27.9639C18.5967 28.5134 17.2756 28.7881 15.8084 28.7881Z" fill="#FE6100"/>
<path d="M35.6154 16.1969C35.668 15.6182 35.5277 15.1652 35.1945 14.8378C34.8613 14.5046 34.3001 14.338 33.511 14.338C33.0083 14.338 32.5874 14.3965 32.2484 14.5134C31.9152 14.6303 31.6551 14.7911 31.468 14.9957C31.2868 15.2002 31.1728 15.437 31.126 15.7059C31.0734 15.9163 31.0763 16.1092 31.1348 16.2846C31.1991 16.4541 31.3189 16.609 31.4943 16.7493C31.6755 16.8896 31.9123 17.0153 32.2045 17.1263C32.5026 17.2374 32.8563 17.3368 33.2655 17.4245L34.6684 17.7401C35.6271 17.9506 36.4308 18.2282 37.0797 18.5731C37.7344 18.9121 38.2488 19.3155 38.6229 19.7831C38.997 20.2508 39.2425 20.7739 39.3594 21.3526C39.4822 21.9313 39.4851 22.5626 39.3682 23.2466C39.1694 24.4274 38.7106 25.4269 37.9916 26.2453C37.2726 27.0637 36.3344 27.6862 35.177 28.1129C34.0196 28.5397 32.6809 28.753 31.1611 28.753C29.6062 28.753 28.2851 28.5221 27.1979 28.0603C26.1164 27.5927 25.3332 26.8795 24.848 25.9209C24.3686 24.9564 24.2517 23.7259 24.4972 22.2295H29.1269C29.0567 22.7789 29.1152 23.2407 29.3022 23.6148C29.4893 23.9889 29.7903 24.2725 30.2054 24.4654C30.6204 24.6583 31.1377 24.7547 31.7573 24.7547C32.2834 24.7547 32.7335 24.6904 33.1077 24.5618C33.4818 24.4332 33.777 24.2549 33.9932 24.0269C34.2095 23.799 34.3411 23.5388 34.3878 23.2466C34.4346 22.9777 34.3878 22.738 34.2475 22.5276C34.1072 22.3171 33.853 22.1272 33.4847 21.9576C33.1164 21.7881 32.6108 21.6332 31.9678 21.4929L30.2492 21.1071C28.7235 20.7564 27.572 20.1777 26.7945 19.371C26.0171 18.5643 25.7423 17.4595 25.9703 16.0566C26.1574 14.9109 26.6279 13.9113 27.382 13.0579C28.1419 12.1986 29.1064 11.5322 30.2755 11.0587C31.4505 10.5794 32.7511 10.3397 34.1774 10.3397C35.6271 10.3397 36.84 10.5823 37.8162 11.0675C38.7982 11.5527 39.5026 12.2337 39.9293 13.1105C40.3619 13.9873 40.4788 15.0161 40.2801 16.1969H35.6154Z" fill="#FE6100"/>
<path d="M10.0854 33.6541H8.85565C8.82057 33.4524 8.75591 33.2737 8.66165 33.1181C8.56739 32.9603 8.45011 32.8266 8.30982 32.7169C8.16953 32.6073 8.00951 32.5251 7.82976 32.4703C7.65221 32.4133 7.4604 32.3849 7.25435 32.3849C6.88827 32.3849 6.56385 32.4769 6.28107 32.6611C5.9983 32.843 5.7769 33.1104 5.61688 33.4633C5.45686 33.8141 5.37685 34.2426 5.37685 34.749C5.37685 35.2641 5.45686 35.6981 5.61688 36.0511C5.77909 36.4018 6.00049 36.667 6.28107 36.8468C6.56385 37.0243 6.88718 37.1131 7.25106 37.1131C7.45273 37.1131 7.64125 37.0868 7.81661 37.0342C7.99417 36.9794 8.15309 36.8994 8.29338 36.7942C8.43587 36.689 8.55533 36.5596 8.65178 36.4062C8.75043 36.2527 8.81838 36.0774 8.85565 35.8801L10.0854 35.8867C10.0394 36.2067 9.93962 36.507 9.78617 36.7876C9.63492 37.0682 9.43654 37.3159 9.19103 37.5307C8.94552 37.7433 8.65836 37.9099 8.32955 38.0305C8.00074 38.1489 7.63576 38.2081 7.23462 38.2081C6.64276 38.2081 6.11448 38.0711 5.64976 37.797C5.18504 37.523 4.81897 37.1274 4.55154 36.61C4.28411 36.0927 4.15039 35.4724 4.15039 34.749C4.15039 34.0234 4.2852 33.4031 4.55483 32.8879C4.82445 32.3706 5.19162 31.9749 5.65634 31.7009C6.12105 31.4269 6.64715 31.2899 7.23462 31.2899C7.60946 31.2899 7.958 31.3425 8.28023 31.4477C8.60246 31.553 8.88962 31.7075 9.14171 31.9114C9.3938 32.113 9.60095 32.3607 9.76316 32.6545C9.92756 32.946 10.035 33.2792 10.0854 33.6541Z" fill="#FE6100"/>
<path d="M16.7568 34.749C16.7568 35.4746 16.6209 36.096 16.349 36.6133C16.0794 37.1285 15.7111 37.523 15.2442 37.797C14.7795 38.0711 14.2523 38.2081 13.6627 38.2081C13.073 38.2081 12.5447 38.0711 12.0778 37.797C11.6131 37.5208 11.2448 37.1252 10.973 36.61C10.7034 36.0927 10.5686 35.4724 10.5686 34.749C10.5686 34.0234 10.7034 33.4031 10.973 32.8879C11.2448 32.3706 11.6131 31.9749 12.0778 31.7009C12.5447 31.4269 13.073 31.2899 13.6627 31.2899C14.2523 31.2899 14.7795 31.4269 15.2442 31.7009C15.7111 31.9749 16.0794 32.3706 16.349 32.8879C16.6209 33.4031 16.7568 34.0234 16.7568 34.749ZM15.5303 34.749C15.5303 34.2382 15.4503 33.8075 15.2903 33.4568C15.1324 33.1038 14.9132 32.8375 14.6327 32.6578C14.3521 32.4758 14.0287 32.3849 13.6627 32.3849C13.2966 32.3849 12.9733 32.4758 12.6927 32.6578C12.4121 32.8375 12.1918 33.1038 12.0318 33.4568C11.8739 33.8075 11.795 34.2382 11.795 34.749C11.795 35.2597 11.8739 35.6916 12.0318 36.0445C12.1918 36.3952 12.4121 36.6616 12.6927 36.8435C12.9733 37.0232 13.2966 37.1131 13.6627 37.1131C14.0287 37.1131 14.3521 37.0232 14.6327 36.8435C14.9132 36.6616 15.1324 36.3952 15.2903 36.0445C15.4503 35.6916 15.5303 35.2597 15.5303 34.749Z" fill="#FE6100"/>
<path d="M22.9809 31.382V38.116H21.8959L18.7229 33.5291H18.667V38.116H17.4471V31.382H18.5387L21.7085 35.9722H21.7676V31.382H22.9809Z" fill="#FE6100"/>
<path d="M23.5513 32.4046V31.382H28.924V32.4046H26.8426V38.116H25.6326V32.4046H23.5513Z" fill="#FE6100"/>
<path d="M29.4968 38.116V31.382H32.022C32.5394 31.382 32.9734 31.4719 33.3241 31.6516C33.677 31.8314 33.9434 32.0834 34.1231 32.4079C34.3051 32.7301 34.396 33.106 34.396 33.5357C34.396 33.9675 34.304 34.3424 34.1198 34.6602C33.9379 34.9759 33.6694 35.2203 33.3143 35.3935C32.9591 35.5644 32.5229 35.6499 32.0056 35.6499H30.207V34.6372H31.8412C32.1437 34.6372 32.3914 34.5955 32.5843 34.5122C32.7772 34.4268 32.9197 34.3029 33.0118 34.1407C33.106 33.9763 33.1531 33.7746 33.1531 33.5357C33.1531 33.2967 33.106 33.0929 33.0118 32.9241C32.9175 32.7531 32.7739 32.6238 32.581 32.5361C32.3881 32.4462 32.1393 32.4013 31.8346 32.4013H30.7167V38.116H29.4968ZM32.9756 35.0646L34.6426 38.116H33.2814L31.6439 35.0646H32.9756Z" fill="#FE6100"/>
<path d="M41.0732 34.749C41.0732 35.4746 40.9373 36.096 40.6654 36.6133C40.3958 37.1285 40.0275 37.523 39.5606 37.797C39.0959 38.0711 38.5687 38.2081 37.9791 38.2081C37.3894 38.2081 36.8611 38.0711 36.3942 37.797C35.9295 37.5208 35.5612 37.1252 35.2894 36.61C35.0198 36.0927 34.885 35.4724 34.885 34.749C34.885 34.0234 35.0198 33.4031 35.2894 32.8879C35.5612 32.3706 35.9295 31.9749 36.3942 31.7009C36.8611 31.4269 37.3894 31.2899 37.9791 31.2899C38.5687 31.2899 39.0959 31.4269 39.5606 31.7009C40.0275 31.9749 40.3958 32.3706 40.6654 32.8879C40.9373 33.4031 41.0732 34.0234 41.0732 34.749ZM39.8467 34.749C39.8467 34.2382 39.7667 33.8075 39.6067 33.4568C39.4488 33.1038 39.2296 32.8375 38.9491 32.6578C38.6685 32.4758 38.3451 32.3849 37.9791 32.3849C37.613 32.3849 37.2897 32.4758 37.0091 32.6578C36.7285 32.8375 36.5082 33.1038 36.3482 33.4568C36.1903 33.8075 36.1114 34.2382 36.1114 34.749C36.1114 35.2597 36.1903 35.6916 36.3482 36.0445C36.5082 36.3952 36.7285 36.6616 37.0091 36.8435C37.2897 37.0232 37.613 37.1131 37.9791 37.1131C38.3451 37.1131 38.6685 37.0232 38.9491 36.8435C39.2296 36.6616 39.4488 36.3952 39.6067 36.0445C39.7667 35.6916 39.8467 35.2597 39.8467 34.749Z" fill="#FE6100"/>
<path d="M41.7635 38.116V31.382H42.9834V37.0934H45.9492V38.116H41.7635Z" fill="#FE6100"/>
</svg>
